# AST/ASF file generated using VICON BodyLanguage
# -----------------------------------------------
:version 1.10
:name VICON
:units
  mass 1.0
  length 0.45
  angle deg
:documentation
   .ast/.asf automatically generated from VICON data using
   VICON BodyBuilder and BodyLanguage model FoxedUp or BRILLIANT.MOD
:root
   order TX TY TZ RX RY RZ
   axis XYZ
   position 0 0 0  
   orientation 0 0 0 
:bonedata
  begin
     id 1 
     name lhipjoint
     direction 0.588788 -0.725889 0.355548 
     length 2.37778 
     axis 0 0 0  XYZ
  end
  begin
     id 2 
     name lfemur
     direction 0.34202 -0.939693 0  
     length 6.86393  
     axis 0 0 20  XYZ
    dof rx ry rz
    limits (-160.0 20.0)
           (-70.0 70.0)
           (-60.0 70.0)
  end
  begin
     id 3 
     name ltibia
     direction 0.34202 -0.939693 0   
     length 7.32851   
     axis 0 0 20   XYZ
    dof rx
    limits (-10.0 170.0)
  end
  begin
     id 4 
     name lfoot
     direction 0.0626533 -0.172138 0.983078   
     length 1.98929   
     axis -90 7.62852e-016 20   XYZ
    dof rx rz
    limits (-45.0 90.0)
           (-70.0 20.0)
  end
  begin
     id 5 
     name ltoes
     direction 1.53647e-011 -4.21734e-011 1   
     length 1.00479   
     axis -90 7.62852e-016 20   XYZ
    dof rx
    limits (-90.0 20.0)
  end
  begin
     id 6 
     name rhipjoint
     direction -0.59141 -0.724168 0.354705   
     length 2.38343  
     axis 0 0 0  XYZ 
  end
  begin
     id 7 
     name rfemur
     direction -0.34202 -0.939693 0   
     length 6.95589   
     axis 0 0 -20   XYZ
    dof rx ry rz
    limits (-160.0 20.0)
           (-70.0 70.0)
           (-70.0 60.0)
  end
  begin
     id 8 
     name rtibia
     direction -0.34202 -0.939693 0   
     length 7.32327   
     axis 0 0 -20   XYZ
    dof rx
    limits (-10.0 170.0)
 end
 begin
     id 9 
     name rfoot
     direction -0.0660461 -0.18146 0.981178   
     length 1.85272  
     axis -90 -7.62852e-016 -20   XYZ
    dof rx rz
    limits (-45.0 90.0)
           (-20.0 70.0)
  end
  begin
     id 10 
     name rtoes
     direction -1.53586e-011 -4.21988e-011 1   
     length 0.93746   
     axis -90 -7.62852e-016 -20   XYZ
    dof rx
    limits (-90.0 20.0)
  end
  begin
     id 11 
     name lowerback
     direction -0.0107982 0.991059 0.13299   
     length 1.98691   
     axis 0 0 0   XYZ
    dof rx ry rz
    limits (-20.0 45.0)
           (-30.0 30.0)
           (-30.0 30.0)
  end
  begin
     id 12 
     name upperback
     direction 0.0076296 0.999916 0.0104576   
     length 1.99501   
     axis 0 0 0   XYZ
    dof rx ry rz
    limits (-20.0 45.0)
           (-30.0 30.0)
           (-30.0 30.0)
  end
  begin
     id 13 
     name thorax
     direction 0.01176 0.998615 -0.0512909   
     length 2.03144   
     axis 0 0 0   XYZ
    dof rx ry rz
    limits (-20.0 45.0)
           (-30.0 30.0)
           (-30.0 30.0)
  end
  begin
     id 14 
     name lowerneck
     direction -0.0171909 0.999644 0.0204011   
     length 1.71818   
     axis 0 0 0   XYZ
    dof rx ry rz
    limits (-20.0 45.0)
           (-30.0 30.0)
           (-30.0 30.0)
  end
  begin
     id 15 
     name upperneck
     direction 0.0250902 0.997482 -0.0663316   
     length 1.66199   
     axis 0 0 0   XYZ
    dof rx ry rz
    limits (-20.0 45.0)
           (-30.0 30.0)
           (-30.0 30.0)
  end
  begin
     id 16
     name head
     direction 0.00881535 0.99956 -0.0283365  
     length 1.81545  
     axis 0 0 0   XYZ
    dof rx ry rz
    limits (-20.0 45.0)
           (-30.0 30.0)
           (-30.0 30.0)
  end
  begin
     id 17 
     name lclavicle
     direction 0.840411 0.486876 -0.238035  
     length 3.30409  
     axis 0 0 0   XYZ
    dof ry rz
    limits (-20.0 10.0)
           (0.0 20.0)
  end
  begin
     id 18 
     name lhumerus
     direction 1 -4.48977e-011 -5.16239e-027   
     length 4.62672   
     axis 180 -30 -90   XYZ
    dof rx ry rz
    limits (-60.0 90.0)
           (-90.0 90.0)
           (-90.0 90.0)
  end
  begin
     id 19
     name lradius
     direction 1 -4.48977e-011 -8.71171e-027   
     length 3.11018   
     axis 180 -30 -90   XYZ
    dof rx
    limits (-10.0 170.0)
  end
  begin
     id 20
     name lwrist
     direction 1 -4.48912e-011 -1.03764e-026   
     length 1.55509   
     axis 9.09556e-015 90 90   XYZ
    dof ry
    limits (-180.0 0.0)
 end
  begin
     id 21 
     name lhand
     direction 1 -4.49072e-011 -2.07528e-026   
     length 0.743834   
     axis 1.3242e-014 90 90   XYZ
    dof rx rz
    limits (-90.0 90.0)
           (-45.0 45.0)
  end
  begin
     id 22 
     name lfingers
     direction 1 -4.48909e-011 -4.15056e-026   
     length 0.599698   
     axis 2.64841e-014 90 90   XYZ
    dof rx
    limits (0.0 90.0)
  end
  begin
     id 23
     name lthumb
     direction 0.707107 -6.35013e-011 0.707107   
     length 0.86105   
     axis -90 45 2.85299e-015   XYZ
    dof rx rz
    limits (-45.0 45.0)
           (-45.0 45.0)
  end
  begin
     id 24 
     name rclavicle
     direction -0.835208 0.500237 -0.228452   
     length 3.2716  
     axis 0 0 0   XYZ 
    dof ry rz
    limits (-10.0 20.0)
           (-20.0 0.0)
  end
  begin
     id 25 
     name rhumerus
     direction -1 -4.48978e-011 -5.1953e-028  
     length 4.55919   
     axis 180 30 90   XYZ
    dof rx ry rz
    limits (-90.0 60.0)
           (-90.0 90.0)
           (-90.0 90.0)
  end
  begin
     id 26 
     name rradius
     direction -1 -4.48961e-011 -5.99546e-027   
     length 3.22748   
     axis 180 30 90   XYZ
    dof rx
    limits (-10.0 170.0)
  end
  begin
     id 27 
     name rwrist
     direction -1 -4.48986e-011 -1.03764e-026   
     length 1.61374   
     axis 9.09556e-015 -90 -90   XYZ
    dof ry
    limits (-180.0 0.0)
  end
  begin
     id 28
     name rhand
     direction -1 -4.4899e-011 -2.07528e-026   
     length 0.700882   
     axis 1.3242e-014 -90 -90   XYZ
    dof rx rz
    limits (-90.0 90.0)
           (-45.0 45.0)
  end
  begin
     id 29
     name rfingers
     direction -1 -4.48991e-011 -4.15056e-026   
     length 0.565069   
     axis 2.64841e-014 -90 -90   XYZ
    dof rx
    limits (0.0 90.0)
  end
  begin
     id 30
     name rthumb
     direction -0.707107 -6.34804e-011 0.707107   
     length 0.811329   
     axis -90 -45 -2.85299e-015   XYZ
    dof rx rz
    limits (-45.0 45.0)
           (-45.0 45.0)
  end
:hierarchy
  begin
    root lhipjoint rhipjoint lowerback
    lhipjoint lfemur
    lfemur ltibia
    ltibia lfoot
    lfoot ltoes
    rhipjoint rfemur
    rfemur rtibia
    rtibia rfoot
    rfoot rtoes
    lowerback upperback
    upperback thorax
    thorax lowerneck lclavicle rclavicle
    lowerneck upperneck
    upperneck head
    lclavicle lhumerus
    lhumerus lradius
    lradius lwrist
    lwrist lhand lthumb
    lhand lfingers
    rclavicle rhumerus
    rhumerus rradius
    rradius rwrist
    rwrist rhand rthumb
    rhand rfingers
  end

#!OML:ASF F:\VICON\USERDATA\INSTALL\SteveWalk\SteveWalk.ASF
:FULLY-SPECIFIED
:DEGREES
321
root 0.296846 15.9086 30.1035 18.1383 8.55724 3.75326
lowerback -15.7756 -3.76935 -4.08112
upperback -4.98873 -4.36577 0.836754
thorax 3.87792 -2.1534 2.35238
lowerneck -4.06031 -1.62089 -0.639835
upperneck 5.98514 -2.04098 -1.32539
head 2.58624 -1.07193 -0.383676
rclavicle 4.04434e-014 7.55382e-015
rhumerus -87.9617 -35.9076 -7.77345
rradius 11.431
rwrist 48.6867
rhand -11.5994 -37.9721
rfingers 7.12502
rthumb 14.443 -67.4496
lclavicle 4.04434e-014 7.55382e-015
lhumerus -15.9079 -12.1033 83.0941
lradius 55.5055
lwrist 9.77357
lhand -21.7015 -20.1999
lfingers 7.12502
lthumb 4.69701 9.72802
rfemur -49.641 -8.7445 22.3921
rtibia 16.6388
rfoot -12.7024 4.98191
rtoes -21.2342
lfemur 0.0705376 2.08195 -23.1187
ltibia 19.2534
lfoot -20.1959 -13.3764
ltoes -21.2353
322
root 0.288304 15.8738 30.3474 17.8027 8.22374 3.21046
lowerback -15.6758 -3.64648 -3.56465
upperback -4.91083 -4.2991 1.05782
thorax 3.88444 -2.12179 2.31136
lowerneck -3.93738 -1.45266 -0.396748
upperneck 5.74759 -1.80889 -1.75655
head 2.47926 -0.962614 -0.551271
rclavicle 9.17205e-015 -1.90833e-014
rhumerus -94.0029 -35.9452 3.52645
rradius 10.8478
rwrist 56.3883
rhand -10.3456 -32.8989
rfingers 7.12502
rthumb 15.6508 -62.2859
lclavicle 9.17205e-015 -1.90833e-014
lhumerus -16.1842 -11.8511 82.8306
lradius 56.576
lwrist 9.89888
lhand -21.8328 -20.3272
lfingers 7.12502
lthumb 4.57024 9.60352
rfemur -48.9249 -6.72414 21.7752
rtibia 17.3669
rfoot -12.1775 2.2163
rtoes -35.73
lfemur 0.781105 1.64392 -22.4348
ltibia 19.7674
lfoot -18.6546 -14.4148
ltoes -18.1293
323
root 0.30063 15.8433 30.5982 17.4546 8.29845 2.48009
lowerback -15.767 -3.45726 -2.50367
upperback -4.6072 -4.22389 1.32095
thorax 4.19794 -2.08932 1.99241
lowerneck -4.58633 -1.33317 -0.54391
upperneck 5.75105 -1.62011 -1.93963
head 2.60232 -0.880475 -0.585191
rclavicle -3.89804e-014 5.96354e-015
rhumerus -96.8385 -35.9896 8.71992
rradius 10.5682
rwrist 60.6674
rhand -10.5247 -31.1681
rfingers 7.12502
rthumb 15.4783 -60.5685
lclavicle -3.89804e-014 5.96354e-015
lhumerus -16.0215 -11.7941 82.7609
lradius 57.4899
lwrist 10.5013
lhand -21.9948 -20.563
lfingers 7.12502
lthumb 4.41384 9.37104
rfemur -48.5106 -6.30823 22.4771
rtibia 18.7609
rfoot -14.141 4.52827
rtoes -16.1201
lfemur 1.71263 1.32804 -21.4951
ltibia 20.2827
lfoot -18.3992 -14.1008
ltoes -22.5689
324
root 0.296722 15.8065 30.8477 17.3809 7.91236 2.25335
lowerback -15.8668 -3.3621 -2.21599
upperback -4.66902 -4.1488 1.46747
thorax 4.17323 -2.05042 1.99678
lowerneck -4.40533 -1.13585 -0.526348
upperneck 5.621 -1.35195 -2.09814
head 2.52647 -0.749852 -0.626273
rclavicle -6.51703e-014 -9.14409e-015
rhumerus -96.0647 -35.7008 7.71081
rradius 10.6696
rwrist 60.2148
rhand -11.2095 -31.5796
rfingers 7.12502
rthumb 14.8187 -61.0297
lclavicle -6.51703e-014 -9.14409e-015
lhumerus -16.7013 -11.5154 82.6417
lradius 58.5019
lwrist 11.0963
lhand -22.1761 -20.7075
lfingers 7.12502
lthumb 4.23874 9.23007
rfemur -48.618 -5.57289 22.7199
rtibia 20.5762
rfoot -12.9876 3.78821
rtoes -24.4705
lfemur 2.40757 1.09019 -21.2328
ltibia 20.7646
lfoot -18.301 -13.0995
ltoes -29.2567
325
root 0.296143 15.7912 31.0976 17.3779 7.66327 2.38719
lowerback -15.8457 -3.3474 -2.16656
upperback -4.97186 -4.13702 1.49095
thorax 3.83918 -2.03899 2.00703
lowerneck -3.56546 -0.950078 -0.464102
upperneck 5.402 -1.10824 -2.33507
head 2.30009 -0.627847 -0.694628
rclavicle 4.66135e-014 1.98785e-015
rhumerus -104.328 -33.294 23.7591
rradius 10.4679
rwrist 70.9802
rhand -11.6277 -26.372
rfingers 7.12502
rthumb 14.4158 -55.8514
lclavicle 4.66135e-014 1.98785e-015
lhumerus -17.9815 -11.1213 82.6421
lradius 59.5977
lwrist 11.3388
lhand -22.2392 -20.7759
lfingers 7.12502
lthumb 4.17778 9.16292
rfemur -48.8299 -5.48242 22.9229
rtibia 22.5058
rfoot -11.1762 3.46342
rtoes -32.7155
lfemur 2.93876 0.566103 -21.3652
ltibia 21.3182
lfoot -16.7239 -13.245
ltoes -30.2864
326
root 0.303287 15.7934 31.3544 17.2962 7.61327 2.20629
lowerback -15.829 -3.27539 -1.66765
upperback -4.9426 -4.12391 1.57118
thorax 3.83315 -2.03247 1.81362
lowerneck -3.95818 -0.742058 -0.327086
upperneck 5.45312 -0.81277 -2.66738
head 2.39176 -0.490486 -0.818795
rclavicle 5.38675e-014 1.03368e-014
rhumerus -95.9785 -35.1302 8.17033
rradius 10.7159
rwrist 60.9022
rhand -12.2984 -32.2395
rfingers 7.12502
rthumb 13.7695 -61.7639
lclavicle 5.38675e-014 1.03368e-014
lhumerus -18.4087 -10.6776 82.5714
lradius 60.3343
lwrist 11.4798
lhand -22.2161 -20.9054
lfingers 7.12502
lthumb 4.20006 9.03299
rfemur -49.0769 -5.29085 23.0371
rtibia 24.4372
rfoot -8.93819 4.31543
rtoes -35.2463
lfemur 3.29807 -0.00996427 -21.1378
ltibia 22.1871
lfoot -12.2996 -15.2456
ltoes -20.2838
327
root 0.30466 15.7909 31.6086 17.3925 7.27159 1.90784
lowerback -15.9135 -3.13747 -1.1989
upperback -5.08412 -4.02036 1.73485
thorax 3.70475 -1.97921 1.74261
lowerneck -3.83763 -0.449015 -0.274445
upperneck 5.26196 -0.413032 -2.96036
head 2.31226 -0.296073 -0.906187
rclavicle -4.13099e-016 -1.66979e-014
rhumerus -96.7017 -35.0488 9.76663
rradius 10.7338
rwrist 62.1651
rhand -12.7905 -31.2426
rfingers 7.12502
rthumb 13.2952 -60.7985
lclavicle -4.13099e-016 -1.66979e-014
lhumerus -19.0666 -10.1841 82.6404
lradius 60.8305
lwrist 11.7169
lhand -22.2531 -21.0454
lfingers 7.12502
lthumb 4.16435 8.89361
rfemur -49.6022 -4.19914 22.5884
rtibia 26.1969
rfoot -6.96316 5.42004
rtoes -31.7192
lfemur 3.06327 -0.343764 -20.8869
ltibia 23.6991
lfoot -10.8808 -15.1567
ltoes -22.6433
328
root 0.311333 15.7863 31.8606 17.4861 7.35073 2.04078
lowerback -16.0453 -3.25437 -1.06813
upperback -5.24656 -4.19478 1.81145
thorax 3.60728 -2.06377 1.7145
lowerneck -3.88674 -0.256451 -0.201201
upperneck 5.49978 -0.134262 -3.27517
head 2.40593 -0.168035 -1.01336
rclavicle -4.64193e-015 -1.27222e-014
rhumerus -97.9016 -34.9451 12.2751
rradius 10.7418
rwrist 64.3845
rhand -13.2053 -29.3325
rfingers 7.12502
rthumb 12.8953 -58.9141
lclavicle -4.64193e-015 -1.27222e-014
lhumerus -20.0867 -9.50586 82.7251
lradius 61.3867
lwrist 11.9428
lhand -22.337 -21.1767
lfingers 7.12502
lthumb 4.08331 8.76392
rfemur -49.7876 -3.56561 21.7561
rtibia 27.7078
rfoot -5.28231 5.59318
rtoes -25.2074
lfemur 2.40215 -0.788405 -20.934
ltibia 25.9548
lfoot -8.36478 -15.6288
ltoes -22.1267
329
root 0.324967 15.784 32.0996 17.6251 7.36804 1.89627
lowerback -16.1593 -3.16565 -0.487553
upperback -5.26084 -4.1711 1.8874
thorax 3.61759 -2.0524 1.4677
lowerneck -4.39407 -0.0867908 -0.239706
upperneck 5.60736 0.115546 -3.44124
head 2.5409 -0.055335 -1.05576
rclavicle 7.2471e-014 -5.56597e-015
rhumerus -98.6495 -35.2843 13.5913
rradius 10.8112
rwrist 65.4327
rhand -13.5654 -28.7271
rfingers 7.12502
rthumb 12.5482 -58.3303
lclavicle 7.2471e-014 -5.56597e-015
lhumerus -20.7418 -8.90509 82.8569
lradius 61.838
lwrist 12.0352
lhand -22.4759 -21.1902
lfingers 7.12502
lthumb 3.94925 8.75293
rfemur -49.9472 -3.05648 21.4615
rtibia 29.1957
rfoot -3.87324 4.79751
rtoes -18.1413
lfemur 1.18936 -0.818907 -20.7171
ltibia 28.8288
lfoot -4.96745 -16.226
ltoes -19.594
330
root 0.331607 15.7854 32.3395 17.6872 7.19061 1.18958
lowerback -16.2995 -3.01967 0.530121
upperback -5.4529 -4.14437 2.09344
thorax 3.43286 -2.04019 1.11759
lowerneck -3.95113 0.232622 0.00842924
upperneck 5.38943 0.53205 -3.73202
head 2.3982 0.155373 -1.17469
rclavicle 6.66457e-014 7.15625e-015
rhumerus -98.3413 -35.3427 13.32
rradius 10.9309
rwrist 65.4586
rhand -13.8201 -33.115
rfingers 7.12502
rthumb 12.3026 -62.7331
lclavicle 6.66457e-014 7.15625e-015
lhumerus -21.9345 -8.27604 82.8115
lradius 62.1918
lwrist 12.3386
lhand -22.678 -20.9454
lfingers 7.12502
lthumb 3.7541 9.00127
rfemur -50.1016 -2.18862 21.8589
rtibia 30.8503
rfoot -3.72182 3.66093
rtoes -16.7956
lfemur -0.329963 -0.453885 -19.9189
ltibia 32.005
lfoot -0.424135 -16.614
ltoes -14.9113
331
root 0.333396 15.7794 32.5847 17.7461 6.86401 0.787638
lowerback -16.7296 -2.80782 1.08918
upperback -5.18314 -3.9784 2.26695
thorax 3.91836 -1.95499 0.988852
lowerneck -4.66598 0.439223 0.0794222
upperneck 5.30101 0.829214 -4.05899
head 2.51149 0.288718 -1.2848
rclavicle 2.7395e-014 9.54166e-015
rhumerus -100.351 -36.0433 16.8432
rradius 10.8855
rwrist 68.0657
rhand -14.2029 -27.0356
rfingers 7.12502
rthumb 11.9335 -56.6755
lclavicle 2.7395e-014 9.54166e-015
lhumerus -22.2391 -7.73387 82.8913
lradius 62.3402
lwrist 12.7876
lhand -22.6438 -20.7462
lfingers 7.12502
lthumb 3.78705 9.1999
rfemur -50.1731 -1.43039 22.1313
rtibia 32.5113
rfoot -4.4009 3.38666
rtoes -17.1884
lfemur -1.9247 -0.0880812 -19.4578
ltibia 35.2827
lfoot 5.23777 -16.3641
ltoes -7.88206
332
root 0.340628 15.7754 32.8201 17.77 6.65702 0.72114
lowerback -16.5166 -2.66026 1.45148
upperback -5.29287 -3.83595 2.29363
thorax 3.66512 -1.88706 0.854759
lowerneck -4.95337 0.586388 0.208097
upperneck 5.38219 1.04174 -4.35347
head 2.60224 0.383561 -1.39717
rclavicle 5.28604e-015 6.36111e-015
rhumerus -103.369 -35.9268 22.1242
rradius 10.7317
rwrist 72.1671
rhand -14.3354 -26.3077
rfingers 7.12502
rthumb 11.8057 -55.955
lclavicle 5.28604e-015 6.36111e-015
lhumerus -23.2887 -7.24309 83.0236
lradius 62.6178
lwrist 13.1677
lhand -22.4176 -20.7803
lfingers 7.12502
lthumb 4.00554 9.16183
rfemur -50.2093 -1.0852 22.217
rtibia 34.0886
rfoot -4.87716 4.33646
rtoes -8.78376
lfemur -3.45894 0.0447578 -19.33
ltibia 38.5365
lfoot 10.4437 -15.711
ltoes -1.8345
